<svg xmlns="http://www.w3.org/2000/svg" viewBox="0 0 40.2 51.28"><path d="M43,34.44a27.5,27.5,0,0,1-2.87,2.68,16.09,16.09,0,0,1-2.65,1.75A10.53,10.53,0,0,1,35,39.8a10.77,10.77,0,0,1-2.44.29,10,10,0,0,1-3.24-.55,11,11,0,0,1-3-1.63l-2,3.49a4.79,4.79,0,0,1-.6.43c-.25.17-.52.33-.8.49a8.59,8.59,0,0,1-.84.45,5.52,5.52,0,0,1-.69.29l-.44-.77,3.42-6.16a14.4,14.4,0,0,1-2.6-4.49,17,17,0,0,1-1-6,19.29,19.29,0,0,1,1.14-6.8A16.22,16.22,0,0,1,25,13.65a13.64,13.64,0,0,1,4.53-3.33A13,13,0,0,1,35,9.15a14.43,14.43,0,0,1,2.13.15,15.15,15.15,0,0,1,1.9.41l1.1-2c.45-.33.93-.64,1.43-.94A9.84,9.84,0,0,1,43,6.1l.49.78L41.35,10.7c.22.12.43.25.63.38a5.22,5.22,0,0,1,.57.41c.09.08.07.24-.07.47a7.08,7.08,0,0,1-.58.8c-.24.29-.5.59-.77.89s-.5.54-.69.73l-.82-.15-.17-.14L28.09,34.63a9.14,9.14,0,0,0,3,2,8.42,8.42,0,0,0,3.15.65,9.11,9.11,0,0,0,3.31-.86,19.39,19.39,0,0,0,4.62-3,.68.68,0,0,1,.24.2,3.92,3.92,0,0,1,.25.32c.08.11.15.21.21.31A1.43,1.43,0,0,0,43,34.44ZM24.41,24.78A16,16,0,0,0,25,29.11a13.13,13.13,0,0,0,1.43,3.38l11-19.8a10.71,10.71,0,0,0-2-.71A10.18,10.18,0,0,0,33,11.73a5.81,5.81,0,0,0-1.75.29,7.14,7.14,0,0,0-1.91.93A9,9,0,0,0,27.5,14.6a10.81,10.81,0,0,0-1.58,2.47,15.23,15.23,0,0,0-1.1,3.36A20.48,20.48,0,0,0,24.41,24.78Z" transform="translate(-11.9 -6.1)"/><path d="M38.6,57.38l-.82-2.13,9.51-3.82H11.9V48.55H47.29l-9.51-3.82.82-2.14,13.5,5.84v3.12Z" transform="translate(-11.9 -6.1)"/></svg>